<?xml version="1.0" encoding="iso-8859-1"?>
<!-- Generator: Adobe Illustrator 16.0.0, SVG Export Plug-In . SVG Version: 6.00 Build 0)  -->
<!DOCTYPE svg PUBLIC "-//W3C//DTD SVG 1.1//EN" "http://www.w3.org/Graphics/SVG/1.1/DTD/svg11.dtd">
<svg version="1.1" id="Capa_1" xmlns="http://www.w3.org/2000/svg" xmlns:xlink="http://www.w3.org/1999/xlink" x="0px" y="0px"
	 width="24px" height="24px" viewBox="0 0 24 24" style="enable-background:new 0 0 24 24;" xml:space="preserve">
<g>
	<path d="M13.625,13.719c0.292,0.234,0.43,0.61,0.355,0.979l-1,5c-0.094,0.474-0.513,0.802-0.979,0.802
		c-0.065,0-0.131-0.006-0.197-0.02c-0.542-0.108-0.893-0.636-0.784-1.179l0.866-4.332L6.9,12.2C5.8,11.5,5.7,9.8,6.8,9
		C8,8.1,9,7.4,9.8,6.8c1.1-0.8,1.9-1.3,2.7-1.3c0.326,0,0.453,0,0.5,0c0.256,0,0.512,0.098,0.707,0.293L17.414,9.5H21
		c0.553,0,1,0.448,1,1s-0.447,1-1,1h-4c-0.266,0-0.52-0.105-0.707-0.293l-0.635-0.635L13.8,9l-3.2,2.1l2.806,2.443L13.625,13.719z
		 M15.5,5.5C16.881,5.5,18,4.381,18,3s-1.119-2.5-2.5-2.5S13,1.619,13,3S14.119,5.5,15.5,5.5z M24,19c0,2.5-2,4.5-4.5,4.5
		S15,21.5,15,19s2-4.5,4.5-4.5S24,16.5,24,19z M22.5,19c0-1.7-1.3-3-3-3s-3,1.3-3,3s1.3,3,3,3S22.5,20.7,22.5,19z M9,19
		c0,2.5-2,4.5-4.5,4.5S0,21.5,0,19s2-4.5,4.5-4.5S9,16.5,9,19z M7.5,19c0-1.7-1.3-3-3-3s-3,1.3-3,3s1.3,3,3,3S7.5,20.7,7.5,19z"/>
</g>
<g>
</g>
<g>
</g>
<g>
</g>
<g>
</g>
<g>
</g>
<g>
</g>
<g>
</g>
<g>
</g>
<g>
</g>
<g>
</g>
<g>
</g>
<g>
</g>
<g>
</g>
<g>
</g>
<g>
</g>
</svg>
